# xmcd
#
# Track frame offsets:
#	150
#	12128
#	24170
#	36553
#	49748
#	63602
#	76498
#	90737
#	103050
#	116674
#	129324
#	143472
#	156490
#	170366
#	182257
#	196461
#	208435
#	221630
#	234234
#	248231
#	261692
#	273972
#	286659
#	298660
#
# Disc length: 4156 seconds
#
# Revision: 1
# Processed by: cddbd v1.5.1PL0 Copyright (c) Steve Scherf et al.
# Submitted via: audiograbber 1.82.02
#
DISCID=63103a18
DTITLE=T-Bone Walker - Quadromania Disk 2 von 4
DYEAR=2001
DGENRE=Blues
TTITLE0=She's My Old Time Used-To-Be
TTITLE1=Dream Girl Blues
TTITLE2=Midnight Blues
TTITLE3=Long Lost Lover Blues
TTITLE4=Triflin' Woman Blues
TTITLE5=Long Skirt Baby Blues
TTITLE6=Goodbye Blues
TTITLE7=Too Much Trouble Blues
TTITLE8=I'm Waiting For Your Call
TTITLE9=Hypin' Woman Blues
TTITLE10=So Blue Blues
TTITLE11=On Your Way Blues
TTITLE12=The Natural Blues
TTITLE13=That's Better For Me
TTITLE14=First Love Blues
TTITLE15=Lonesome Woman Blues
TTITLE16=Vacation Blues
TTITLE17=Inspiration Blues
TTITLE18=Description Blues
TTITLE19=T-Bone Shuffle
TTITLE20=No Worry Blues
TTITLE21=Don't Leave Me Baby
TTITLE22=Bobby Sox Baby
TTITLE23=I'm Gonna Find My Baby
EXTD=
EXTT0=
EXTT1=
EXTT2=
EXTT3=
EXTT4=
EXTT5=
EXTT6=
EXTT7=
EXTT8=
EXTT9=
EXTT10=
EXTT11=
EXTT12=
EXTT13=
EXTT14=
EXTT15=
EXTT16=
EXTT17=
EXTT18=
EXTT19=
EXTT20=
EXTT21=
EXTT22=
EXTT23=
PLAYORDER=
